<svg id="Capa_1" enable-background="new 0 0 482 482" height="512" viewBox="0 0 482 482" width="512" xmlns="http://www.w3.org/2000/svg"><g><g fill="#4e5a61"><path d="m35.25 275h90v189h-90z"/><path d="m35.25 18h90v113h-90z"/><path d="m356.75 275h90v189h-90z"/><path d="m356.75 18h90v113h-90z"/></g><path d="m292.956 200 39.044-45-7.852-41h-105l-43.148 39 11.956 47z" fill="#ff9e22"/><path d="m114.148 114h-114.148v86l45 9 37.956-9 39.044-47z" fill="#ff9e22"/><path d="m187.956 200 31.192-86h-105l-31.192 86 53.044 12z" fill="#f4d33c"/><path d="m0 200v86.252h51.673l34.327-40.252-3.044-46z" fill="#ff7037"/><path d="m482 200v-86h-52.852l-43.148 40 11.956 46 38.044 17z" fill="#ff9e22"/><path d="m397.956 200-46.956 43 15.673 43.252h115.327v-86.252z" fill="#ff7037"/><path d="m187.956 200-40.956 41 9.673 45.252h105l33.327-42.252-2.044-44z" fill="#ff7037"/><path d="m397.956 200 31.192-86h-105l-31.192 86 58.044 15z" fill="#f4d33c"/><path d="m82.956 200-31.283 86.252h105l31.283-86.252z" fill="#ff9e22"/><path d="m292.956 200-31.283 86.252h105l31.283-86.252z" fill="#ff9e22"/></g></svg>